<svg width="32" height="38" viewBox="0 0 32 38" xmlns="http://www.w3.org/2000/svg" xmlns:xlink="http://www.w3.org/1999/xlink">
    <g id="g1" opacity="0.1">
        <path id="path1" fill="#1c1c1c" stroke="none" d="M 28 36.5 C 28 37.328426 22.851276 38 16.5 38 C 10.148724 38 5 37.328426 5 36.5 C 5 35.671574 10.148724 35 16.5 35 C 22.851276 35 28 35.671574 28 36.5 Z"/>
    </g>
    <g id="g2">
        <path id="path2" fill="#ffffff" fill-rule="evenodd" stroke="none" d="M 16 34.8298 C 14.732101 36.6796 14.730999 36.678902 14.730999 36.678902 L 14.725601 36.6754 L 14.7141 36.6679 L 14.676399 36.643101 C 14.644901 36.6222 14.600601 36.5928 14.544601 36.555099 C 14.4324 36.4795 14.2728 36.370499 14.072498 36.229698 C 13.672001 35.948399 13.107399 35.539501 12.4333 35.017399 C 11.088799 33.976002 9.290001 32.470299 7.483501 30.615601 C 3.964001 27.002201 0 21.643299 0 15.562302 C 0 11.434898 1.685699 7.476601 4.6863 4.558098 C 7.686901 1.639603 11.7565 0 16 0 C 20.2435 0 24.313099 1.639603 27.313702 4.558098 C 30.314301 7.476601 32 11.434898 32 15.562302 C 32 21.643299 28.035999 27.002201 24.516499 30.615601 C 22.709999 32.470299 20.911201 33.976002 19.5667 35.017399 C 18.892601 35.539501 18.327999 35.948399 17.927601 36.229698 C 17.7272 36.370499 17.5676 36.4795 17.455399 36.555099 C 17.399399 36.5928 17.355099 36.6222 17.323601 36.643101 L 17.2859 36.6679 L 17.274399 36.6754 L 17.2705 36.677898 C 17.2705 36.677898 17.267899 36.6796 16 34.8298 Z M 16 34.8298 L 17.267899 36.6796 C 16.500099 37.177502 15.498699 37.176701 14.730999 36.678902 L 16 34.8298 Z"/>
    </g>
    <path id="path3" fill="#42ab44" fill-rule="evenodd" stroke="none" d="M 12 16 C 12 13.790901 13.790901 12 16 12 C 18.209099 12 20 13.790901 20 16 C 20 18.209099 18.209099 20 16 20 C 13.790901 20 12 18.209099 12 16 Z"/>
</svg>
